HIERARCHY
ROOT hip
{
  OFFSET 0.0 0.0 0.0
  CHANNELS 6 Xposition Yposition Zposition Zrotation Yrotation Xrotation
  JOINT torso
  {
    OFFSET 0.0 0.0 0.0
    CHANNELS 3 Zrotation Xrotation Yrotation
    JOINT neck
    {
      OFFSET -20.11218299999996 327.95800799999995 66.30578600000035
      CHANNELS 3 Zrotation Xrotation Yrotation
      JOINT head
      {
        OFFSET 18.28939800000012 288.83178699999996 217.81652800000006
        CHANNELS 3 Zrotation Xrotation Yrotation
        End Site
        {
          OFFSET 0.0 0.0 0.0
        }
      }
    }
    JOINT left_collar
    {
      OFFSET -20.11218299999996 327.95800799999995 66.30578600000035
      CHANNELS 3 Zrotation Xrotation Yrotation
      JOINT left_upper_arm
      {
        OFFSET -127.08163400000001 -16.17407199999991 15.44799799999987
        CHANNELS 3 Zrotation Xrotation Yrotation
        JOINT left_forearm
        {
          OFFSET -234.267792 45.78796399999999 109.31286600000021
          CHANNELS 3 Zrotation Xrotation Yrotation
          JOINT left_hand
          {
            OFFSET -259.114014 -33.25433399999997 16.18847699999992
            CHANNELS 3 Zrotation Xrotation Yrotation
            End Site
            {
              OFFSET 0.0 0.0 0.0
            }
          }
        }
      }
    }
    JOINT right_collar
    {
      OFFSET -20.11218299999996 327.95800799999995 66.30578600000035
      CHANNELS 3 Zrotation Xrotation Yrotation
      JOINT right_upper_arm
      {
        OFFSET 164.513184 1.5733030000000099 4.892333999999892
        CHANNELS 3 Zrotation Xrotation Yrotation
        JOINT right_forearm
        {
          OFFSET 260.742027 48.718444999999974 144.35229500000014
          CHANNELS 3 Zrotation Xrotation Yrotation
          JOINT right_hand
          {
            OFFSET 287.85150899999996 -44.57171600000015 13.96813899999961
            CHANNELS 3 Zrotation Xrotation Yrotation
            End Site
            {
              OFFSET 0.0 0.0 0.0
            }
          }
        }
      }
    }
  }
}
MOTION
Frames: 13
Frame Time: 0.01
-272.6892295586516 258.2425360622016 1361.8872772519628 1.233360974060395 -0.12844679083245872 -4.669413194953374 -0.2181565295357561 1.3225910529114255 0.1229731027869062 1.5896793668716374 -20.501996570654335 -0.15313103573515421 0.0 0.0 0.0 1.3617358779135824 0.8501469531722676 -4.8759794794053315 70.2649344356068 22.93897727422858 18.37953326845853 6.010826971960852 2.612778745235941 -12.133061604565722 0.0 0.0 0.0 -1.5548946928349276 0.05370321937507772 1.8572418706891907 -69.48294653557218 32.01508951489446 -10.282554762796916 -13.314423600400744 1.251380549347781 2.130682601316875 0.0 0.0 0.0
-272.6741088772786 258.1976961571242 1362.213583244216 1.2386812079007896 -0.19669470140742537 -4.623045114843378 -0.21207401322805416 1.3544523654713816 0.12371776752422929 1.5828185511623962 -20.444638359644483 -0.15011983553510216 0.0 0.0 0.0 1.3603044444980468 0.8592450999215036 -4.942075443901086 70.2730356097602 22.960184466346373 18.34144009357532 5.97437349244023 2.6076574472453506 -12.139691554663925 0.0 0.0 0.0 -1.5609470814073214 0.05371320792725774 1.7914313517709817 -69.50904070402713 32.069042196223776 -10.203572576019955 -13.27181320369398 1.2417710419164456 2.1069265557926653 0.0 0.0 0.0
-272.6580365903516 258.15245585754695 1362.5423753480006 1.243719616836432 -0.2635141887058443 -4.577441466841058 -0.20589915557592822 1.3848154425222103 0.12435859816174233 1.5760377160285415 -20.38618687112983 -0.14722824640597956 0.0 0.0 0.0 1.3590538545627688 0.8682622541192784 -5.007383503928106 70.28080365839426 22.981885173851225 18.30214243398209 5.937591135434132 2.602445420177445 -12.146162326204779 0.0 0.0 0.0 -1.567246344007656 0.05372683642255992 1.725506588071248 -69.53460414785296 32.123640592821985 -10.122988307171042 -13.229133392482035 1.2321386241401486 2.0830334975412717 0.0 0.0 0.0
-272.64023911599963 258.1066038834676 1362.8761085267952 1.2484534564519922 -0.3284641153260477 -4.533340017878998 -0.19979287852163527 1.4131092490214825 0.12489177705865943 1.5693576061244376 -20.326360433164073 -0.14448636469444787 0.0 0.0 0.0 1.3581160158809933 0.8770780558795921 -5.0708929217237815 70.28817221242572 23.0046279297404 18.260478745883827 5.9001244477304615 2.5970153971761114 -12.152122005060487 0.0 0.0 0.0 -1.573824301916088 0.05374705165619396 1.65994144856296 -69.55931029296043 32.17918859637479 -10.039929969881223 -13.18647780289241 1.2224901213971657 2.0590035200820522 0.0 0.0 0.0
-272.6199030312424 258.0598778314709 1363.2175988479162 1.252865288980058 -0.39119257401060054 -4.49142395139985 -0.19391403496474627 1.4388139060502232 0.1253158826340043 1.5627970015386616 -20.26486229929503 -0.14192340187473068 0.0 0.0 0.0 1.3576267744492567 0.8855826425559049 -5.1316610225783865 70.29506589739208 23.02899167800669 18.21522053012591 5.8615638210241485 2.5912304140015006 -12.157214932945267 0.0 0.0 0.0 -1.580721298465859 0.05377712484142286 1.5951894410729826 -69.58281794382317 32.2360073539668 -9.95348004930854 -13.143942215271911 1.212835928520971 2.034849442834055 0.0 0.0 0.0
-272.5961927307797 258.0119702264213 1363.569950597573 1.2569429997688184 -0.4514516227166761 -4.452299855021556 -0.18841478616093177 1.4614795442035866 0.125632201411124 1.5563729880302428 -20.201395196838636 -0.13956724196731946 0.0 0.0 0.0 1.3577222218849763 0.8936801054907723 -5.188842317611388 70.30139923288804 23.05557014146726 18.165103470930312 5.82145504082199 2.584947087941292 -12.16109011674103 0.0 0.0 0.0 -1.587985613810887 0.053820573221752155 1.5316751422305903 -69.60477506504053 32.29442176115496 -9.86270437249312 -13.101627265182362 1.2031912728727612 2.0106008171353182 0.0 0.0 0.0
-272.5682672545127 257.9625357268385 1363.9364762267892 1.2606797246055317 -0.5091087430115454 -4.416480048449368 -0.18343651072263756 1.4807427831437348 0.1258450190823117 1.5501008948070656 -20.135676012569714 -0.13744371561955476 0.0 0.0 0.0 1.358535084173761 0.9012911612976557 -5.241712136820605 70.30707560138737 23.084956143147078 18.10885864631419 5.77931060180435 2.5780191257466734 -12.163409108278298 0.0 0.0 0.0 -1.595672215466667 0.05388106658145119 1.46978819222063 -69.62482301106944 32.35474723225806 -9.766680677065436 -13.059640782582825 1.1935771891862612 1.9863070256848632 0.0 0.0 0.0
-272.53529554653744 257.9111992130125 1364.3206120541738 1.2640737292224078 -0.5641546007191017 -4.384369927675746 -0.1791064049043526 1.4963402456280825 0.1259618756416328 1.5439939059319712 -20.06745000748231 -0.13557562421595826 0.0 0.0 0.0 1.360191311990952 0.9083549447981821 -5.289683920685505 70.31198628466132 23.11772640917822 18.04524272443236 5.734622486588835 2.5703009589154138 -12.1638530878664 0.0 0.0 0.0 -1.603840878001929 0.053962324254307206 1.4098799989053776 -69.64260112648758 32.417277327691416 -9.664525724810758 -13.018099551923163 1.1840211431570071 1.9620392837941583 0.0 0.0 0.0
-272.49646949822903 257.857564473825 1364.7258328825935 1.2671282813360354 -0.6167068983794907 -4.356260618394969 -0.17553487582580524 1.5081186876715786 0.12599376814812707 1.5380624062114885 -19.996503960056415 -0.1339815922000401 0.0 0.0 0.0 1.362806958231307 0.9148298925982495 -5.332319785068338 70.31600958037767 23.154427347749543 17.97306613671799 5.686876017308651 2.561651392820775 -12.162128924377456 0.0 0.0 0.0 -1.6125537596788246 0.05406800855481515 1.3522629944781617 -69.65775163827419 32.48227279855834 -9.555419857451616 -12.977130295104535 1.174557256000678 1.9378913996013454 0.0 0.0 0.0
-272.45101423934034 257.8012232085316 1365.1555687479363 1.2698515479168788 -0.6670102648672742 -4.332326900572386 -0.17281377448972146 1.5160414570803264 0.12595528262096983 1.532313154533665 -19.92267766238487 -0.13267485114389027 0.0 0.0 0.0 1.366485398658143 0.9206937364824851 -5.369334361487656 70.31901003025257 23.195562259630222 17.891218310819905 5.635564313412781 2.5519371479928954 -12.157974031956536 0.0 0.0 0.0 -1.6218725646063652 0.05420162014441701 1.2972120425034586 -69.66992476088306 32.54995256714768 -9.438627983511779 -12.936869703830732 1.1652260986614111 1.913979200736003 0.0 0.0 0.0
-272.3981952731037 257.7417640662191 1365.613126860625 1.2722565374904455 -0.7154322250175743 -4.312630092861272 -0.17101546566883655 1.520191085088119 0.1258646343545886 1.5267483858841384 -19.84587324570976 -0.13166206357331997 0.0 0.0 0.0 1.3713149317266218 0.9259426662405629 -5.40059223003583 70.32083780251968 23.24158037925073 17.798689171046846 5.5802028347133525 2.5410361701199764 -12.151159901272496 0.0 0.0 0.0 -1.6318554501210043 0.05436640011461461 1.2449674189240851 -69.67878392383848 32.62048708748876 -9.313516127279238 -12.897463390636327 1.1560740431115555 1.8904385905429375 0.0 0.0 0.0
-272.3373222030968 257.67878145377244 1366.1016213952414 1.2743610901511877 -0.7624553425968734 -4.297125365612229 -0.17019268643575594 1.5207678884107638 0.12574359425121212 1.5213649344677929 -19.7660619062607 -0.13094228304140199 0.0 0.0 0.0 1.3773667850975269 0.9305897567551832 -5.426099534106946 70.32132826463082 23.292868053821774 17.694586299799578 5.5203434686013235 2.5288405938483502 -12.141494258015184 0.0 0.0 0.0 -1.6425538614055388 0.05456524273598349 1.195738695631538 -69.68401100758747 32.693994411576845 -9.17956288081664 -12.859063693450377 1.147152180668969 1.8674222624431491 0.0 0.0 0.0
-272.26774896849565 257.61188385554004 1366.623913155866 1.276187896238243 -0.8086656520923347 -4.285672778250809 -0.1703791022164818 1.518084529591922 0.1256172779068599 1.5161534537561216 -19.683287745498664 -0.13050612672676315 0.0 0.0 0.0 1.384693556385765 0.9346627870065694 -5.445990615668174 70.32030175430071 23.349742235240065 17.578147410722885 5.455587642558844 2.5152592660571673 -12.12882189442054 0.0 0.0 0.0 -1.6540094862517514 0.05480062193173819 1.1497088448809445 -69.68531144102009 32.77053911955699 -9.03636538935098 -12.821826359669513 1.138514844823649 1.8450951811767737 0.0 0.0 0.0
